<svg xmlns="http://www.w3.org/2000/svg" viewBox="0 0 1200 675" role="img" aria-label="A* path planning grid">
  <rect width="1200" height="675" fill="#0f172a"/>
  <rect x="80" y="60" width="1040" height="555" rx="24" fill="#111827" stroke="#334155" stroke-width="6"/>
  <g fill="none" stroke="#475569" stroke-width="2">
    <g>
      <line x1="150" y1="120" x2="150" y2="570"/>
      <line x1="250" y1="120" x2="250" y2="570"/>
      <line x1="350" y1="120" x2="350" y2="570"/>
      <line x1="450" y1="120" x2="450" y2="570"/>
      <line x1="550" y1="120" x2="550" y2="570"/>
      <line x1="650" y1="120" x2="650" y2="570"/>
      <line x1="750" y1="120" x2="750" y2="570"/>
      <line x1="850" y1="120" x2="850" y2="570"/>
      <line x1="950" y1="120" x2="950" y2="570"/>
      <line x1="1050" y1="120" x2="1050" y2="570"/>
    </g>
    <g>
      <line x1="120" y1="170" x2="1100" y2="170"/>
      <line x1="120" y1="240" x2="1100" y2="240"/>
      <line x1="120" y1="310" x2="1100" y2="310"/>
      <line x1="120" y1="380" x2="1100" y2="380"/>
      <line x1="120" y1="450" x2="1100" y2="450"/>
      <line x1="120" y1="520" x2="1100" y2="520"/>
      <line x1="120" y1="590" x2="1100" y2="590"/>
    </g>
  </g>

  <rect x="190" y="180" width="80" height="70" fill="#334155"/>
  <rect x="470" y="180" width="80" height="70" fill="#334155"/>
  <rect x="670" y="320" width="80" height="70" fill="#334155"/>
  <rect x="910" y="390" width="80" height="70" fill="#334155"/>

  <rect x="130" y="120" width="80" height="50" fill="#06b6d4"/>
  <text x="170" y="152" fill="#001018" font-family="Arial, sans-serif" font-size="26" text-anchor="middle" font-weight="700">S</text>

  <rect x="1030" y="560" width="80" height="50" fill="#f97316"/>
  <text x="1070" y="593" fill="#fff" font-family="Arial, sans-serif" font-size="26" text-anchor="middle" font-weight="700">E</text>

  <path d="M170 145 L250 145 L250 210 L330 210 L330 280 L420 280 L420 350 L520 350 L520 430 L760 430 L760 280 L860 280 L860 430 L1010 430 L1010 560" 
        fill="none" stroke="#22d3ee" stroke-width="8" stroke-linecap="round"/>
  <circle cx="170" cy="145" r="8" fill="#22d3ee"/>
  <circle cx="1010" cy="560" r="8" fill="#22d3ee"/>

  <text x="600" y="70" fill="#f8fafc" font-family="Arial, sans-serif" font-size="44" font-weight="700">A* Path Planning</text>
</svg>
